<svg xmlns="http://www.w3.org/2000/svg" viewBox="0 0 96 96" width="96" height="96">
  <defs>
    <linearGradient id="leaf-body" x1="0" y1="0" x2="0" y2="1">
      <stop offset="0" stop-color="#A9C89B" />
      <stop offset="1" stop-color="#7FA36F" />
    </linearGradient>
  </defs>
  <!-- 圓潤的鼠尾草葉身體 -->
  <path
    d="M48 12 C31 23 19 39 19 57 C19 74 32 86 48 86 C64 86 77 74 77 57 C77 39 65 23 48 12 Z"
    fill="url(#leaf-body)"
    stroke="#5E7F52"
    stroke-width="2"
    stroke-linejoin="round"
  />
  <!-- 葉脈 -->
  <path d="M48 20 C46.5 36 46.5 60 48 80" stroke="#5E7F52" stroke-width="1.5" fill="none" opacity="0.3" />
  <!-- 頭頂小芽 -->
  <path
    d="M48 13 C48 8 50 4.5 54.5 3.5 C54.5 8.5 52 12 48 13 Z"
    fill="#8FB07E"
    stroke="#5E7F52"
    stroke-width="1.2"
    stroke-linejoin="round"
  />
  <path
    d="M48 13 C47 9 44.5 6.5 40.5 6.5 C41.5 10.5 44.5 12.8 48 13 Z"
    fill="#9FC08C"
    stroke="#5E7F52"
    stroke-width="1.2"
    stroke-linejoin="round"
  />
  <!-- 眼睛 -->
  <ellipse cx="38" cy="55" rx="4.2" ry="5.6" fill="#2F3A2E" />
  <ellipse cx="58" cy="55" rx="4.2" ry="5.6" fill="#2F3A2E" />
  <circle cx="39.6" cy="52.8" r="1.5" fill="#F4F8EF" />
  <circle cx="59.6" cy="52.8" r="1.5" fill="#F4F8EF" />
  <!-- 腮紅 -->
  <ellipse cx="30.5" cy="63" rx="4.2" ry="2.4" fill="#E8A79E" opacity="0.75" />
  <ellipse cx="65.5" cy="63" rx="4.2" ry="2.4" fill="#E8A79E" opacity="0.75" />
  <!-- 微笑 -->
  <path d="M44 66 Q48 70 52 66" stroke="#2F3A2E" stroke-width="2" stroke-linecap="round" fill="none" />
</svg>
